<?xml version="1.0" standalone="no"?>
<!DOCTYPE svg PUBLIC "-//W3C//DTD SVG 20010904//EN"
 "http://www.w3.org/TR/2001/REC-SVG-20010904/DTD/svg10.dtd">
<svg version="1.0" xmlns="http://www.w3.org/2000/svg"
 width="900.000000pt" height="1032.000000pt" viewBox="0 0 900.000000 1032.000000"
 preserveAspectRatio="xMidYMid meet">
<metadata>
Created by potrace 1.10, written by Peter Selinger 2001-2011
</metadata>
<g transform="translate(0.000000,1032.000000) scale(0.100000,-0.100000)"
fill="#000000" stroke="none">
<path d="M4700 10309 c0 -20 -180 -217 -297 -325 -65 -59 -120 -111 -123 -114
-3 -3 -54 -48 -115 -100 -167 -143 -187 -162 -375 -350 -112 -111 -207 -217
-261 -290 -47 -63 -88 -122 -92 -130 -4 -8 -16 -28 -27 -45 -56 -88 -150 -298
-188 -425 -156 -510 -140 -1001 54 -1695 30 -105 46 -161 59 -205 41 -142 49
-168 60 -200 7 -19 20 -60 29 -90 9 -30 29 -95 45 -145 15 -49 43 -137 61
-195 18 -58 38 -123 45 -145 14 -41 63 -204 92 -305 8 -30 21 -73 28 -95 7
-22 20 -69 30 -105 9 -36 23 -87 30 -115 13 -49 30 -115 59 -232 15 -62 35
-153 60 -273 8 -41 22 -109 31 -150 8 -41 15 -86 15 -100 0 -13 6 -58 14 -100
20 -100 37 -234 46 -350 4 -52 14 -165 21 -250 6 -86 9 -168 6 -182 -7 -26 -8
-26 -132 -33 -69 -4 -129 -5 -132 -2 -8 9 -32 173 -32 222 -1 81 -60 412 -107
600 -29 116 -73 263 -90 303 -8 18 -14 39 -14 47 0 8 -6 29 -14 47 -13 31 -22
55 -62 161 -38 101 -57 143 -153 337 -99 198 -112 222 -209 370 -232 354 -484
606 -797 797 -105 63 -323 156 -440 187 -213 55 -395 73 -567 56 -68 -7 -143
-18 -167 -26 -25 -8 -53 -14 -62 -14 -10 0 -33 -6 -51 -14 -18 -8 -53 -22 -78
-31 -213 -82 -412 -237 -578 -451 -18 -23 -32 -45 -32 -49 0 -3 -11 -21 -24
-38 -13 -18 -44 -71 -69 -119 -97 -184 -144 -331 -187 -574 -13 -78 -13 -460
1 -538 27 -155 61 -297 85 -354 8 -18 14 -39 14 -46 0 -21 101 -240 143 -311
120 -200 306 -383 522 -512 37 -22 279 -139 325 -157 25 -10 60 -24 78 -32 18
-8 39 -14 47 -14 8 0 29 -6 47 -14 39 -16 108 -37 198 -60 36 -10 88 -23 115
-30 94 -26 190 -46 213 -46 17 0 22 6 22 27 0 79 65 390 112 538 44 137 138
292 211 348 105 80 237 114 399 102 53 -3 102 -4 108 0 15 10 -7 35 -31 35
-10 0 -33 6 -51 14 -71 30 -239 72 -350 87 -100 14 -204 1 -272 -33 -112 -57
-196 -213 -247 -463 -4 -22 -14 -65 -22 -95 l-14 -55 -39 2 c-21 2 -57 10 -79
19 -22 9 -56 22 -75 29 -69 25 -196 80 -240 103 -168 89 -225 125 -330 210
-186 150 -304 292 -395 472 -57 113 -81 174 -95 245 -5 22 -14 54 -21 70 -17
41 -17 428 0 470 7 17 16 48 21 70 22 103 99 266 180 378 87 123 256 280 370
346 73 42 155 81 169 81 10 0 21 4 26 9 18 17 130 42 254 56 106 12 144 12
250 0 132 -14 204 -28 259 -51 18 -8 38 -14 46 -14 26 0 185 -74 311 -144 97
-54 237 -161 345 -263 102 -95 310 -336 310 -358 0 -4 13 -24 28 -44 45 -58
113 -176 182 -316 75 -154 80 -167 134 -312 20 -55 62 -197 92 -310 8 -29 20
-77 28 -105 14 -52 30 -115 61 -238 8 -33 22 -86 30 -117 17 -71 39 -165 59
-258 8 -38 23 -105 32 -147 23 -98 18 -104 -84 -112 -238 -19 -456 -80 -530
-149 -33 -30 -62 -90 -62 -127 0 -82 97 -192 244 -278 99 -58 313 -149 404
-172 56 -14 65 -28 58 -85 -4 -27 -11 -99 -16 -160 -8 -103 -24 -186 -48 -245
-5 -14 -18 -45 -27 -70 -37 -93 -66 -146 -118 -218 -67 -91 -139 -145 -295
-223 -148 -75 -207 -113 -196 -130 9 -15 153 -10 218 7 108 29 184 73 267 154
111 109 173 215 238 410 38 117 81 305 81 357 0 52 21 134 36 140 8 3 35 -2
61 -10 27 -9 74 -21 105 -27 31 -6 61 -16 66 -23 12 -14 -1 -342 -17 -452 -6
-38 -11 -92 -11 -120 0 -71 -49 -392 -77 -510 -48 -200 -117 -365 -212 -505
-21 -30 -72 -106 -114 -168 -42 -62 -77 -117 -77 -121 0 -5 -7 -14 -15 -21 -8
-7 -15 -25 -15 -41 0 -26 18 -38 247 -175 483 -287 638 -404 704 -528 22 -42
27 -46 62 -46 48 0 94 29 182 117 102 101 141 145 239 268 49 61 99 124 113
140 24 29 41 53 225 309 48 66 101 141 119 164 33 47 42 103 20 125 -6 6 -32
12 -56 12 -50 0 -45 5 -132 -125 -236 -353 -495 -681 -594 -751 -37 -26 -64
-18 -78 22 -26 75 -235 304 -386 423 -27 22 -54 45 -60 51 -15 16 -203 166
-257 204 -27 19 -48 42 -48 52 0 16 70 140 120 214 51 75 111 184 128 233 64
183 96 438 112 907 6 149 12 276 15 283 5 15 57 16 105 2 19 -6 67 -15 106
-20 91 -12 156 -40 203 -89 57 -59 81 -112 81 -177 0 -78 23 -66 33 17 12 93
-4 213 -39 283 -55 113 -114 141 -374 176 -71 9 -97 18 -103 33 -2 7 -2 136 1
288 l5 276 111 7 c134 7 453 6 591 -3 97 -6 100 -7 102 -31 11 -113 70 -411
83 -424 6 -6 10 -18 10 -28 0 -26 108 -131 160 -156 25 -11 86 -28 135 -38 50
-9 95 -17 101 -19 13 -4 24 -52 24 -107 0 -112 83 -449 136 -550 8 -14 14 -31
14 -37 0 -18 89 -162 132 -213 80 -96 212 -178 319 -198 81 -16 209 -13 209 4
0 20 -23 34 -195 125 -205 108 -283 208 -389 499 -32 87 -38 119 -46 225 -5
62 -12 145 -16 185 -5 57 -4 76 6 82 8 5 48 12 90 15 189 16 408 111 522 226
47 48 58 66 64 105 10 69 -8 113 -68 171 -48 44 -206 133 -239 133 -6 0 -32 7
-58 15 -80 25 -170 45 -200 45 -16 0 -42 5 -56 10 -26 10 -27 12 -21 68 7 64
27 154 76 357 7 28 16 68 21 90 8 41 21 94 44 180 14 51 36 137 62 235 8 30
20 78 28 105 7 28 21 79 30 115 24 92 45 160 61 198 8 18 14 39 14 47 0 8 6
29 14 47 8 18 22 53 31 78 39 103 141 324 185 400 221 382 460 644 740 812 78
46 203 108 220 108 5 0 24 6 42 14 96 40 242 66 367 66 80 0 222 -21 281 -41
157 -53 232 -93 361 -190 212 -160 349 -400 414 -722 21 -107 21 -430 -1 -547
-47 -259 -122 -457 -257 -685 -153 -255 -378 -480 -632 -632 -31 -18 -218
-110 -238 -117 -22 -7 -42 35 -51 109 -7 53 -27 196 -47 330 -6 44 -15 103
-19 130 -33 225 -128 355 -260 355 -112 0 -305 -92 -480 -229 -23 -19 -24 -20
-6 -27 11 -4 63 -2 115 4 185 23 252 12 329 -54 43 -38 122 -167 122 -201 0
-7 6 -27 14 -45 33 -78 106 -443 106 -533 0 -64 9 -85 36 -85 56 0 379 121
539 202 127 64 307 178 375 238 238 208 394 434 504 728 55 146 72 201 120
400 27 108 52 265 55 340 1 6 8 12 16 12 13 0 15 34 15 250 0 193 -3 249 -12
247 -8 -1 -16 17 -21 48 -74 463 -307 771 -688 910 -217 79 -586 84 -864 10
-136 -35 -211 -60 -280 -90 -313 -137 -578 -339 -819 -626 -90 -107 -251 -338
-295 -424 -6 -11 -26 -47 -45 -80 -69 -121 -196 -386 -196 -409 0 -8 -4 -17
-10 -21 -5 -3 -14 -20 -19 -38 -5 -18 -19 -57 -31 -87 -12 -30 -25 -68 -30
-85 -5 -16 -19 -61 -33 -100 -64 -186 -126 -435 -161 -645 -30 -180 -38 -245
-46 -354 -5 -69 -12 -111 -20 -116 -19 -12 -313 14 -339 29 -29 19 41 590 105
843 8 32 14 67 14 79 0 12 6 45 14 73 8 28 21 78 30 111 33 133 48 192 61 235
7 25 20 74 30 110 9 36 23 83 29 105 7 22 21 67 31 100 9 33 23 76 30 95 7 19
20 62 30 95 9 33 23 76 30 95 29 82 37 107 45 135 11 39 29 91 46 133 8 18 14
39 14 47 0 8 6 29 14 47 8 18 35 101 61 183 26 83 53 166 60 185 7 19 20 62
30 95 9 33 23 76 30 95 7 19 20 61 28 93 40 142 46 163 52 187 3 14 16 68 29
120 48 191 79 359 101 540 19 156 17 527 -4 670 -40 275 -112 582 -176 760
-55 150 -164 376 -224 466 -17 25 -31 47 -31 50 0 6 -181 247 -190 254 -4 3
-30 32 -58 65 -58 69 -76 89 -228 251 -61 66 -142 155 -180 199 -38 44 -74 85
-80 90 -22 20 -104 134 -104 144 0 6 -7 11 -15 11 -8 0 -15 -5 -15 -11z m128
-509 c74 -98 142 -187 151 -197 62 -67 300 -393 324 -443 4 -8 16 -28 26 -45
11 -16 40 -70 64 -120 39 -79 54 -113 98 -223 83 -209 171 -620 209 -977 33
-314 -10 -749 -117 -1180 -8 -33 -21 -86 -29 -117 -34 -140 -46 -186 -59 -228
-7 -25 -20 -74 -30 -110 -9 -36 -23 -83 -29 -105 -7 -22 -20 -66 -29 -97 -10
-32 -24 -84 -34 -115 -9 -32 -22 -76 -28 -98 -7 -22 -20 -67 -30 -100 -9 -33
-23 -78 -30 -100 -7 -22 -20 -69 -30 -105 -10 -36 -23 -83 -30 -105 -23 -74
-63 -219 -90 -325 -9 -36 -22 -87 -30 -115 -21 -81 -37 -147 -45 -190 -4 -22
-12 -60 -18 -85 -61 -258 -101 -561 -110 -840 l-7 -215 -70 2 c-38 1 -216 6
-395 10 l-325 8 -6 100 c-4 55 -12 181 -18 280 -21 328 -60 664 -115 1005 -37
221 -48 290 -61 355 -8 39 -21 108 -30 155 -24 125 -67 340 -120 590 -32 154
-47 229 -60 295 -8 39 -21 104 -29 145 -148 736 -172 1199 -90 1710 22 140 65
319 90 378 8 18 14 38 14 46 0 23 89 221 144 321 42 75 190 277 256 350 20 22
68 74 106 115 38 41 107 117 154 169 47 52 90 99 95 105 37 40 128 152 169
209 28 37 52 67 55 67 3 -1 66 -81 139 -180z m-823 -6628 c0 -216 -3 -264 -14
-271 -17 -11 -69 -5 -130 15 -25 8 -54 14 -65 14 -50 1 -51 4 -52 244 -1 164
2 228 10 235 14 12 152 30 211 27 l40 -1 0 -263z m1255 257 c74 -6 142 -15
150 -19 12 -7 14 -47 11 -262 -1 -139 -6 -256 -9 -260 -10 -10 -99 16 -152 43
-85 45 -139 114 -180 229 -17 49 -25 218 -11 253 12 32 7 31 191 16z m-1632
-179 c9 -92 11 -165 5 -200 -8 -55 -8 -55 -43 -54 -69 3 -253 88 -317 147 -55
50 -58 88 -12 135 44 45 128 79 279 110 77 17 74 22 88 -138z m2217 113 c264
-47 355 -92 355 -176 0 -34 -7 -46 -57 -96 -32 -32 -71 -65 -88 -73 -182 -96
-302 -139 -390 -142 l-60 -1 -3 165 c-3 164 10 314 30 337 12 15 75 11 213
-14z"/>
</g>
</svg>
