<?xml version="1.0" encoding="UTF-8" standalone="no"?>
<svg id="svg9524" xmlns:rdf="http://www.w3.org/1999/02/22-rdf-syntax-ns#" xmlns="http://www.w3.org/2000/svg" height="316.64mm" width="316.64mm" version="1.1" xmlns:cc="http://creativecommons.org/ns#" xmlns:dc="http://purl.org/dc/elements/1.1/" viewBox="0 0 1121.9678 1121.9689">
<g id="layer1" transform="translate(186.7 11.479)">
<path id="path0120" d="m935.21 582.64c0.2194-2.904-0.1971-6.6168-1.2559-9.895-2.7918-8.6441-11.746-18.091-18.682-23.179 0 0-5.9993-0.0759-5.9993-0.0759 11.898 8.1521-2.7573 17.043-7.0072 19.721-9.3177 5.8099-15.454 11.166-17.792 16.601-4.4862 10.428-0.8963 20.066 9.5957 31.105 4.9436 5.2015 7.0899 6.3412 9.7837 8.7378l5.9419 0.83145-1.9317-1.9093c-7.1837-7.106-5.3835-11.569 7.2926-18.172 13.115-6.8316 19.396-15.053 20.054-23.765m-1121.9-66.274c-0.2194 2.904 0.197 6.6168 1.2558 9.895 2.7919 8.6441 11.746 18.091 18.682 23.179 0 0 5.9994 0.0759 5.9994 0.0759-11.898-8.1521 2.7572-17.043 7.0071-19.721 9.3177-5.8099 15.454-11.166 17.792-16.601 4.4862-10.428 0.8962-20.066-9.5958-31.105-4.9436-5.2015-7.0898-6.3412-9.7836-8.7378 0 0-5.942-0.83145-5.942-0.83145l1.9318 1.9093c7.1836 7.106 5.3834 11.569-7.2927 18.172-13.115 6.8316-19.396 15.053-20.054 23.765m1111.7 145.36c0.5826-2.8534 0.574-5.9492 0.021-9.3496-1.4569-8.9662-8.9711-19.97-15.21-25.893l-5.9419-0.83145c10.775 9.5866-5.0362 16.447-9.6413 18.454-10.087 4.3389-16.848 8.7382-19.977 13.759-6.0044 9.6342-4.0796 20.286 4.9511 32.549 4.2551 5.7783 6.2097 7.0651 8.5148 9.8377 9.2203 11.09-7.4244 15.606-12.243 17.025-10.548 3.0514-17.794 6.0019-21.633 10.502-7.3676 8.6365-6.935 19.522 0.1871 32.984 3.3558 6.343 5.1473 7.9278 7.0193 11.009 7.4881 12.326-9.5942 14.367-14.569 15.064-10.882 1.4706-18.414 3.3826-22.869 7.2747-8.549 7.4689-9.656 18.354-4.5634 32.707 2.3996 6.7629 3.9667 8.6086 5.3728 11.929 5.6243 13.281-11.549 12.844-16.573 12.815-10.98-0.11678-18.678 0.72725-23.646 3.938-9.5346 6.1615-12.17 16.81-9.1876 31.745 1.4053 7.037 2.7049 9.1009 3.6212 12.588 3.6653 13.949-13.256 11.071-18.224 10.324-10.85-1.6855-19.052-1.6441-24.367 0.95205-10.2 4.9821-14.005 14.518-13.184 29.726 0.3872 7.1655 1.2796 9.4266 1.7745 12.998 1.9798 14.286-14.666 9.0678-19.476 7.6194-10.499-3.2163-18.612-4.3347-24.243-2.5238-10.807 3.4751-15.898 12.403-17.262 27.572-0.6426 7.1472-0.083 9.5127-0.1045 13.118-0.086 14.422-15.794 6.903-20.346 4.779-9.9284-4.6905-17.781-6.9478-23.615-5.9659-11.195 1.8843-17.465 10.039-21.011 24.851-1.6707 6.9788-1.4596 9.4003-2.0028 12.965-2.1731 14.258-16.602 4.5948-20.796 1.8309-9.1401-6.0855-16.56-9.4324-22.474-9.3123-11.35 0.2306-18.675 7.4939-24.362 21.622-2.6794 6.657-2.827 9.0833-3.8888 12.529-4.2475 13.783-17.067 2.2027-20.806-1.1515-8.139-7.3711-14.958-11.72-20.825-12.479-11.258-1.4562-20.151 4.6641-27.554 17.974-3.4882 6.2712-3.8489 8.5605-5.4141 11.809-6.2608 12.993-17.28-0.2936-20.571-4.0896-7.152-8.332-12.817-13.705-18.502-15.338-10.911-3.134-20.603 1.8166-29.931 13.856-4.3948 5.6727-5.199 7.9666-7.1611 10.992-7.8485 12.1-17.014-2.7572-19.693-7.0071-5.8099-9.3177-11.166-15.454-16.601-17.792-10.428-4.4862-20.066-0.8961-31.105 9.5959-5.2014 4.9436-6.343 7.0896-8.7397 9.7834-9.5866 10.775-16.447-5.0362-18.454-9.6413-4.3389-10.087-8.7383-16.848-13.759-19.977-9.6342-6.0044-20.286-4.0795-32.549 4.9512-5.7782 4.2551-7.0651 6.2097-9.8376 8.5148-11.09 9.2204-15.606-7.4243-17.025-12.243-3.0514-10.548-6.0021-17.794-10.502-21.633-8.6365-7.3677-19.522-6.9349-32.984 0.1872-6.343 3.3558-7.9279 5.1473-11.009 7.0193-12.326 7.4881-14.367-9.5942-15.064-14.569-1.4706-10.882-3.3826-18.414-7.2747-22.869-7.4689-8.549-18.354-9.6559-32.708-4.5633-6.7628 2.3996-8.6086 3.9667-11.929 5.3728-13.281 5.6244-12.844-11.549-12.815-16.573 0.1168-10.98-0.7273-18.678-3.938-23.646-6.1615-9.5346-16.81-12.17-31.746-9.1875-7.037 1.4053-9.101 2.7048-12.588 3.6212-13.949 3.6653-11.073-13.257-10.325-18.225 1.6855-10.851 1.6441-19.052-0.9521-24.367-4.982-10.201-14.518-14.005-29.726-13.184-7.1655 0.38721-9.4265 1.2796-12.998 1.7745-14.286 1.9798-9.0677-14.666-7.6194-19.476 3.2162-10.499 4.3346-18.612 2.5238-24.243-3.4751-10.807-12.403-15.898-27.572-17.262-7.1472-0.64254-9.5127-0.0831-13.118-0.10452-14.422-0.0856-6.903-15.794-4.779-20.346 4.6905-9.9285 6.9479-17.781 5.966-23.615-1.8843-11.195-10.04-17.465-24.851-21.011-6.9788-1.6706-9.4003-1.4595-12.965-2.0028-14.258-2.173-4.5948-16.602-1.8309-20.796 6.0854-9.1401 9.4324-16.56 9.3123-22.474-0.2306-11.35-7.494-18.675-21.622-24.362-6.657-2.6794-9.0832-2.8269-12.529-3.8888-13.783-4.2474-2.2027-17.067 1.1516-20.806 7.371-8.1389 11.72-14.958 12.479-20.825 1.4563-11.258-4.664-20.151-17.974-27.554-6.2712-3.4881-8.5605-3.8488-11.809-5.414-12.993-6.2608 0.2936-17.28 4.0896-20.571 8.3321-7.1521 13.706-12.817 15.339-18.503 3.1339-10.911-1.8167-20.603-13.856-29.931-5.6727-4.3948-8.0172-5.0965-10.992-7.1345 0 0-5.9994-0.0759-5.9994-0.0759l2.198 1.7207c8.1749 5.9389 6.9251 10.628-4.6068 19.071-11.931 8.7363-17.197 17.834-16.53 26.545 0.2224 2.9037 1.0799 5.8784 2.544 8.9969 3.8605 8.2225 14.246 16.73 21.872 20.712l2.3817 1.3058c8.8582 4.8612 8.244 9.5664-1.8832 19.652-10.478 10.435-14.453 19.576-12.698 28.135 0.585 2.8529 2.0839 6.2825 3.9998 9.1457 5.0518 7.5494 16.408 14.443 24.543 17.24 0 0 2.5501 0.93491 2.5501 0.93491 9.4856 3.4819 9.6858 8.2978 0.8908 19.564-9.0996 11.657-11.422 21.717-8.4162 29.921 1.0019 2.7345 2.9283 5.918 5.2468 8.4661 6.1134 6.7187 18.255 11.893 26.713 13.463l2.6599 0.54948c9.8947 2.0482 10.758 6.8053 3.7109 19.24-7.2907 12.866-8.2013 23.182-4.031 30.859 1.3901 2.5591 3.7229 5.4374 6.3876 7.621 7.026 5.7575 19.73 9.1373 28.326 9.4657l2.7115 0.15863c10.087 0.59386 11.607 5.1928 6.4305 18.515-5.3557 13.784-4.8185 24.141 0.4129 31.139 1.7438 2.3325 4.4452 4.8535 7.3958 6.6319 7.7799 4.689 20.804 6.2311 29.359 5.3256l2.7063-0.23116c10.068-0.85622 12.218 3.49 8.9999 17.416-3.3298 14.408-1.3458 24.601 4.8308 30.78 2.0588 2.0597 5.0806 4.1792 8.2547 5.5184 8.3693 3.531 21.329 2.9403 29.715 1.0235l2.73-0.53194c9.843-2.2835 12.582 1.723 11.383 15.965-1.2402 14.736 2.1629 24.569 9.1588 29.802 2.332 1.7445 5.6189 3.426 8.9519 4.2976 8.7882 2.2982 21.521-0.126 29.547-3.2236l2.6163-0.9016c9.414-3.6709 12.687-0.082 13.546 14.185 0.8884 14.761 5.66 24.048 13.337 28.218 2.5591 1.3902 6.0494 2.607 9.4734 2.9879 9.028 1.0045 21.27-3.2088 28.762-7.4358l2.392-1.2865c8.901-4.7825 12.581-1.8478 15.507 12.142 3.0272 14.475 9.0923 23.045 17.297 26.047 2.7349 1.0007 5.7974 1.4528 9.2423 1.4124 9.083-0.1066 21.121-6.0475 27.91-11.331l2.1767-1.6245c8.1003-6.0402 12.14-3.5744 17.104 9.8287 5.1359 13.867 12.395 21.58 20.955 23.328 2.8534 0.5827 5.9492 0.574 9.3496 0.022 8.9662-1.4569 19.97-8.9712 25.893-15.21 0 0 1.9094-1.9318 1.9094-1.9318 7.1059-7.1836 11.571-5.3832 18.174 7.2929 6.8316 13.115 15.053 19.396 23.765 20.054 2.9039 0.2194 6.6167-0.1971 9.895-1.2559 8.6441-2.7919 18.391-11.62 23.303-18.682l1.5955-2.198c5.939-8.1749 10.628-6.9251 19.071 4.6068 8.7363 11.931 17.834 17.197 26.545 16.53 2.9037-0.2224 5.8784-1.0799 8.9968-2.544 8.2226-3.8605 16.73-14.246 20.712-21.872l1.3058-2.3816c4.8613-8.8582 9.5664-8.2441 19.652 1.8831 10.435 10.478 19.576 14.453 28.135 12.698 2.8529-0.585 6.2825-2.0839 9.1457-3.9998 7.5494-5.0518 14.443-16.408 17.24-24.543l0.9349-2.5502c3.4819-9.4855 8.2978-9.6857 19.564-0.8907 11.656 9.0996 21.717 11.422 29.921 8.4161 2.7345-1.0018 5.9181-2.9283 8.4662-5.2468 6.7187-6.1133 11.893-18.255 13.463-26.713l0.5495-2.6599c2.0482-9.8947 6.8052-10.758 19.24-3.7108 12.866 7.2907 23.182 8.2013 30.859 4.031 2.5591-1.3901 5.4375-3.723 7.621-6.3877 5.7576-7.0261 9.1373-19.73 9.4657-28.326l0.1586-2.7114c0.5939-10.087 5.1928-11.607 18.515-6.4306 13.784 5.3557 24.141 4.8185 31.139-0.4129 2.3324-1.7438 4.8535-4.4452 6.6318-7.3957 4.689-7.78 6.2311-20.804 5.3256-29.359l-0.2312-2.7062c-0.8562-10.068 3.49-12.218 17.416-9 14.408 3.3299 24.601 1.3458 30.78-4.8308 2.0596-2.0589 4.1791-5.0806 5.5183-8.2547 3.5311-8.3694 2.939-21.327 1.0222-29.714l-0.5319-2.7299c-2.2835-9.8431 1.723-12.582 15.965-11.383 14.736 1.2403 24.569-2.1629 29.802-9.1588 1.7445-2.332 3.4261-5.6188 4.2976-8.9518 2.2982-8.7883-0.126-21.521-3.2236-29.547l-0.9015-2.6163c-3.6709-9.4141-0.082-12.687 14.185-13.546 14.761-0.88845 24.048-5.66 28.218-13.337 1.3902-2.5591 2.607-6.0494 2.988-9.4733 1.0045-9.0281-3.2088-21.27-7.4358-28.762l-1.2865-2.3921c-4.7825-8.901-1.8478-12.581 12.142-15.507 14.475-3.0272 23.045-9.0923 26.047-17.297 1.0007-2.7349 1.4528-5.7975 1.4124-9.2423-0.1066-9.0832-6.0475-21.121-11.331-27.91l-1.6245-2.1768c-6.0402-8.1004-3.5744-12.14 9.8287-17.104 13.867-5.1359 21.58-12.395 23.328-20.955m-1101.4-224.47c-0.5826 2.8534-0.574 5.9492-0.022 9.3496 1.4569 8.9662 8.9712 19.97 15.21 25.893l5.9419 0.83145c-10.775-9.5866 5.0363-16.447 9.6413-18.454 10.087-4.3389 16.848-8.7382 19.977-13.759 6.0044-9.6342 4.0796-20.286-4.9511-32.549-4.2551-5.7783-6.2097-7.0651-8.5148-9.8377-9.2203-11.09 7.4244-15.606 12.243-17.025 10.548-3.0514 17.794-6.0019 21.633-10.502 7.3676-8.6365 6.935-19.522-0.1871-32.984-3.3558-6.343-5.1473-7.9278-7.0193-11.009-7.488-12.326 9.5942-14.367 14.569-15.064 10.882-1.4706 18.414-3.3826 22.869-7.2747 8.549-7.469 9.656-18.354 4.5634-32.707-2.3996-6.7629-3.9667-8.6086-5.3728-11.929-5.6243-13.281 11.549-12.844 16.573-12.815 10.98 0.11677 18.678-0.72725 23.646-3.938 9.5346-6.1615 12.17-16.81 9.1876-31.745-1.4053-7.037-2.7049-9.1009-3.6212-12.588-3.6653-13.949 13.256-11.071 18.224-10.324 10.85 1.6855 19.051 1.6441 24.367-0.95204 10.2-4.9821 14.005-14.518 13.184-29.726-0.3872-7.1655-1.2796-9.4266-1.7745-12.998-1.9798-14.286 14.666-9.0678 19.476-7.6194 10.499 3.2163 18.612 4.3347 24.243 2.5238 10.807-3.4751 15.898-12.403 17.262-27.572 0.6426-7.1472 0.083-9.5126 0.1045-13.118 0.086-14.422 15.794-6.903 20.346-4.779 9.9284 4.6905 17.781 6.9479 23.615 5.966 11.195-1.8843 17.465-10.039 21.011-24.851 1.6707-6.9788 1.4596-9.4004 2.0028-12.965 2.1731-14.258 16.602-4.5948 20.796-1.8309 9.1401 6.0854 16.56 9.4324 22.474 9.3123 11.35-0.23057 18.675-7.4939 24.362-21.622 2.6794-6.657 2.827-9.0832 3.8888-12.529 4.2475-13.783 17.067-2.2027 20.806 1.1515 8.139 7.371 14.958 11.72 20.825 12.479 11.258 1.4562 20.151-4.6641 27.554-17.974 3.4882-6.2712 3.8489-8.5604 5.4141-11.809 6.2608-12.993 17.28 0.29361 20.571 4.0896 7.152 8.332 12.817 13.705 18.502 15.339 10.911 3.1339 20.603-1.8166 29.931-13.856 4.3948-5.6727 5.199-7.9666 7.1611-10.992 7.8485-12.1 17.014 2.7572 19.693 7.0071 5.8099 9.3177 11.166 15.454 16.601 17.792 10.428 4.4862 20.066 0.89607 31.105-9.5959 5.2014-4.9436 6.343-7.0896 8.7397-9.7834 9.5866-10.775 16.447 5.0362 18.454 9.6412 4.3389 10.087 8.7383 16.848 13.759 19.977 9.6342 6.0045 20.286 4.0796 32.549-4.9512 5.7782-4.2551 7.0651-6.2097 9.8376-8.5148 11.09-9.2204 15.606 7.4243 17.025 12.243 3.0514 10.548 6.0021 17.794 10.502 21.633 8.6365 7.3676 19.522 6.9349 32.984-0.18722 6.343-3.3558 7.9279-5.1473 11.009-7.0193 12.326-7.488 14.367 9.5942 15.064 14.569 1.4706 10.882 3.3826 18.414 7.2747 22.869 7.4689 8.549 18.354 9.6559 32.708 4.5633 6.7628-2.3996 8.6086-3.9667 11.929-5.3728 13.281-5.6243 12.844 11.549 12.815 16.573-0.1168 10.98 0.7273 18.678 3.938 23.646 6.1615 9.5346 16.81 12.17 31.746 9.1875 7.037-1.4053 9.101-2.7048 12.588-3.6212 13.949-3.6653 11.073 13.257 10.325 18.225-1.6855 10.851-1.6441 19.052 0.9521 24.367 4.982 10.201 14.518 14.005 29.726 13.184 7.1655-0.38721 9.4265-1.2796 12.998-1.7745 14.286-1.9798 9.0677 14.666 7.6194 19.476-3.2162 10.499-4.3346 18.612-2.5238 24.243 3.4751 10.807 12.403 15.898 27.572 17.262 7.1472 0.64253 9.5127 0.0831 13.118 0.10451 14.422 0.0856 6.903 15.794 4.779 20.346-4.6905 9.9285-6.9479 17.781-5.966 23.615 1.8843 11.195 10.04 17.465 24.851 21.011 6.9788 1.6706 9.4003 1.4595 12.965 2.0028 14.258 2.173 4.5948 16.602 1.8309 20.796-6.0854 9.1402-9.4324 16.56-9.3123 22.474 0.2306 11.35 7.494 18.675 21.622 24.362 6.6569 2.6794 9.0832 2.8269 12.529 3.8888 13.783 4.2474 2.2027 17.067-1.1515 20.806-7.3711 8.1389-11.72 14.958-12.479 20.825-1.4562 11.258 4.6641 20.151 17.974 27.554 6.2711 3.4881 8.5604 3.8488 11.809 5.414 12.993 6.2608-0.2937 17.28-4.0897 20.571-8.332 7.152-13.705 12.817-15.338 18.503-3.134 10.911 1.8166 20.603 13.856 29.931 5.6727 4.3948 7.9666 5.1991 10.992 7.1612 0 0 5.9993-0.0759 5.9993-0.0759l-2.198-1.5956c-8.1749-5.9389-6.9251-10.628 4.6068-19.071 11.931-8.7363 17.197-17.834 16.53-26.545-0.2224-2.9037-1.0799-5.8784-2.544-8.9969-3.8605-8.2225-14.246-16.73-21.872-20.712l-2.3816-1.3058c-8.8582-4.8612-8.2441-9.5664 1.8832-19.652 10.478-10.435 14.453-19.576 12.698-28.135-0.5849-2.8529-2.0839-6.2825-3.9998-9.1457-5.0518-7.5494-16.408-14.443-24.543-17.24 0 0-2.5501-0.93491-2.5501-0.93491-9.4856-3.4819-9.6858-8.2978-0.8908-19.564 9.0997-11.657 11.422-21.717 8.4162-29.921-1.0018-2.7345-2.9283-5.918-5.2468-8.4661-6.1133-6.7187-18.255-11.893-26.713-13.463l-2.6599-0.54948c-9.8947-2.0482-10.758-6.8053-3.7109-19.24 7.2907-12.866 8.2014-23.181 4.031-30.859-1.3901-2.5591-3.7229-5.4374-6.3876-7.621-7.026-5.7575-19.73-9.1373-28.326-9.4657l-2.7115-0.15862c-10.087-0.59387-11.607-5.1928-6.4305-18.515 5.3557-13.784 4.8185-24.141-0.4129-31.139-1.7438-2.3325-4.4452-4.8535-7.3958-6.6319-7.7799-4.689-20.804-6.2311-29.359-5.3256l-2.7063 0.23117c-10.068 0.85622-12.218-3.49-8.9999-17.416 3.3298-14.408 1.3458-24.601-4.8308-30.78-2.0588-2.0597-5.0806-4.1792-8.2547-5.5184-8.3693-3.531-21.329-2.9403-29.715-1.0235l-2.73 0.53194c-9.843 2.2835-12.582-1.723-11.383-15.965 1.2402-14.736-2.1629-24.568-9.1588-29.802-2.332-1.7445-5.6189-3.426-8.9519-4.2976-8.7882-2.2981-21.521 0.12608-29.547 3.2237 0 0-2.6163 0.90154-2.6163 0.90154-9.414 3.671-12.687 0.0817-13.546-14.185-0.8884-14.761-5.66-24.048-13.337-28.218-2.5591-1.3901-6.0494-2.6069-9.4734-2.9879-9.028-1.0045-21.27 3.2089-28.762 7.4358l-2.392 1.2865c-8.901 4.7825-12.581 1.8478-15.507-12.142-3.0272-14.475-9.0923-23.045-17.297-26.047-2.7349-1.0007-5.7974-1.4528-9.2423-1.4124-9.083 0.10662-21.121 6.0475-27.91 11.331l-2.1767 1.6245c-8.1003 6.0402-12.14 3.5744-17.104-9.8286-5.1359-13.867-12.395-21.58-20.955-23.328-2.8534-0.58263-5.9492-0.574-9.3496-0.0215-8.9662 1.4569-19.97 8.9712-25.893 15.211l-1.9094 1.9317c-7.1059 7.1836-11.571 5.3832-18.174-7.2929-6.8316-13.115-15.053-19.396-23.765-20.054-2.9039-0.21939-6.6167 0.1971-9.895 1.2559-8.6441 2.7919-18.391 11.62-23.303 18.682l-1.5955 2.1981c-5.939 8.1749-10.628 6.9251-19.071-4.6068-8.7363-11.931-17.834-17.197-26.545-16.53-2.9037 0.22242-5.8784 1.0799-8.9968 2.544-8.2226 3.8605-16.73 14.246-20.712 21.872l-1.3058 2.3816c-4.8613 8.8582-9.5664 8.2441-19.652-1.8832-10.435-10.478-19.576-14.453-28.135-12.698-2.8529 0.58494-6.2825 2.0839-9.1457 3.9998-7.5494 5.0518-14.443 16.408-17.24 24.543l-0.9349 2.5501c-3.4819 9.4856-8.2978 9.6858-19.564 0.89076-11.656-9.0996-21.717-11.422-29.921-8.4162-2.7345 1.0018-5.9181 2.9283-8.4662 5.2468-6.7187 6.1134-11.893 18.255-13.463 26.713l-0.5495 2.6599c-2.0482 9.8947-6.8052 10.758-19.24 3.7108-12.866-7.2907-23.182-8.2014-30.859-4.031-2.5591 1.3901-5.4375 3.723-7.621 6.3876-5.7576 7.0261-9.1373 19.73-9.4657 28.326 0 0-0.1586 2.7115-0.1586 2.7115-0.5939 10.087-5.1928 11.607-18.515 6.4305-13.784-5.3557-24.141-4.8185-31.139 0.41289-2.3324 1.7438-4.8535 4.4452-6.6318 7.3958-4.689 7.78-6.2311 20.804-5.3256 29.359l0.2312 2.7062c0.8562 10.068-3.49 12.218-17.416 9-14.408-3.3299-24.601-1.3458-30.78 4.8308-2.0596 2.0589-4.1791 5.0806-5.5183 8.2547-3.5311 8.3694-2.939 21.327-1.0222 29.714l0.5319 2.7299c2.2835 9.8431-1.723 12.582-15.965 11.383-14.736-1.2403-24.569 2.1629-29.802 9.1588-1.7445 2.332-3.4261 5.6188-4.2976 8.9518-2.2982 8.7883 0.126 21.521 3.2236 29.547l0.9015 2.6162c3.6709 9.4141 0.082 12.687-14.185 13.546-14.761 0.88845-24.048 5.66-28.218 13.337-1.3902 2.5591-2.607 6.0494-2.988 9.4733-1.0045 9.0281 3.2088 21.27 7.4358 28.762l1.2865 2.3921c4.7825 8.901 1.8478 12.581-12.142 15.507-14.475 3.0272-23.045 9.0923-26.047 17.297-1.0007 2.7349-1.4528 5.7975-1.4123 9.2423 0.1065 9.0831 6.0474 21.121 11.331 27.91l1.6245 2.1768c6.0402 8.1004 3.5744 12.14-9.8287 17.104-13.867 5.1359-21.58 12.395-23.328 20.955"/>
</g>
</svg>
